<svg width="518" height="518" viewBox="0 0 518 518" fill="none" xmlns="http://www.w3.org/2000/svg">
<g clip-path="url(#clip0_6_24)">
<g clip-path="url(#clip1_6_24)">
<rect width="400.417" height="488.636" transform="matrix(1 0 0.000580178 1 37 18)" fill="black"/>
<path d="M90.847 99.4053H141.755C146.706 99.4053 151.129 100.146 155.023 101.627C158.917 103.108 162.198 105.097 164.865 107.594C167.533 110.048 169.566 112.926 170.964 116.227C172.405 119.485 173.126 122.892 173.128 126.446C173.13 129.705 172.772 132.561 172.054 135.016C171.379 137.47 170.364 139.649 169.011 141.554C167.7 143.458 166.072 145.151 164.126 146.632C162.181 148.071 159.96 149.382 157.464 150.567C159.622 151.668 161.528 153.36 163.179 155.645C164.831 157.888 166.081 160.808 166.93 164.405L170.174 176.91H178.109L178.247 195.636H150.317L146.495 172.784C146.113 170.076 145.519 167.748 144.714 165.802C143.951 163.813 142.913 162.205 141.601 160.978C140.288 159.708 138.679 158.777 136.775 158.185C134.912 157.592 132.691 157.296 130.109 157.296H121.921L121.933 178.243H130.756L130.766 195.636H90.9029L90.8928 178.243H100.859L100.823 116.861H90.8572L90.847 99.4053ZM121.897 116.861L121.911 140.157H134.543C136.955 140.157 139.113 139.946 141.017 139.522C142.963 139.057 144.613 138.359 145.967 137.428C147.363 136.454 148.42 135.248 149.138 133.81C149.899 132.371 150.279 130.657 150.278 128.668C150.276 124.944 148.941 122.045 146.274 119.972C143.607 117.898 139.692 116.861 134.529 116.861H121.897ZM187.966 99.4053H264.519L264.538 132.223H243.845L243.837 118.575H219.144L219.155 137.555H238.262L238.272 155.963H219.166L219.179 178.243H243.871L243.861 161.168H264.555L264.575 195.636H188.022L188.012 178.243H198.105L198.07 118.575H187.977L187.966 99.4053ZM272.984 138.062C272.983 136.497 273.257 135.037 273.806 133.683C274.398 132.286 275.201 131.08 276.216 130.064C277.231 129.049 278.416 128.245 279.77 127.652C281.166 127.06 282.668 126.764 284.276 126.764C285.799 126.764 287.238 127.06 288.593 127.652C289.947 128.245 291.133 129.049 292.149 130.064C293.165 131.08 293.97 132.286 294.563 133.683C295.156 135.037 295.454 136.497 295.454 138.062C295.455 139.628 295.16 141.109 294.568 142.506C293.977 143.86 293.173 145.045 292.158 146.061C291.143 147.076 289.959 147.88 288.605 148.473C287.251 149.065 285.813 149.361 284.289 149.361C282.681 149.361 281.179 149.065 279.782 148.473C278.427 147.88 277.242 147.076 276.226 146.061C275.209 145.045 274.405 143.86 273.811 142.506C273.261 141.109 272.985 139.628 272.984 138.062ZM273.012 186.432C273.011 184.866 273.285 183.406 273.834 182.052C274.426 180.655 275.229 179.449 276.244 178.434C277.259 177.376 278.444 176.55 279.798 175.958C281.194 175.366 282.696 175.069 284.304 175.069C285.827 175.069 287.266 175.366 288.621 175.958C289.975 176.55 291.161 177.376 292.177 178.434C293.193 179.449 293.998 180.655 294.591 182.052C295.185 183.406 295.482 184.866 295.482 186.432C295.483 187.997 295.188 189.478 294.596 190.875C294.005 192.229 293.201 193.414 292.186 194.43C291.171 195.445 289.987 196.249 288.633 196.842C287.279 197.434 285.841 197.73 284.317 197.73C282.709 197.73 281.207 197.434 279.81 196.842C278.455 196.249 277.27 195.445 276.254 194.43C275.238 193.414 274.433 192.229 273.84 190.875C273.289 189.478 273.013 187.997 273.012 186.432ZM120.774 260.405H165.208C170.159 260.405 174.709 261.188 178.857 262.754C183.005 264.277 186.582 266.351 189.588 268.975C192.594 271.598 194.944 274.624 196.639 278.052C198.334 281.479 199.182 285.055 199.184 288.779C199.187 293.265 198.512 297.476 197.161 301.411C195.851 305.304 193.8 308.69 191.009 311.567C188.218 314.445 184.686 316.73 180.413 318.423C176.139 320.073 171.083 320.898 165.243 320.898H151.85L151.86 339.243H160.683L160.694 356.636H120.83L120.82 339.243H130.786L130.75 277.861H120.785L120.774 260.405ZM151.825 277.861L151.84 303.696H160.536C165.36 303.696 169.189 302.681 172.023 300.649C174.857 298.618 176.273 295.402 176.271 291.001C176.268 286.896 174.933 283.68 172.266 281.352C169.599 279.025 165.684 277.861 160.521 277.861H151.825ZM267.246 314.805H249.41L249.406 308.013C247.671 308.013 246.084 308.14 244.645 308.394C243.206 308.605 241.937 308.986 240.837 309.536C239.779 310.086 238.87 310.848 238.109 311.821C237.39 312.795 236.883 314.001 236.588 315.439L236.601 339.243H249.995L250.005 356.636H207.095L207.085 339.243H216.924L216.906 308.267H207.194L207.184 290.874H236.446L236.449 295.508C238.31 294.027 240.404 292.884 242.731 292.08C245.058 291.276 247.597 290.874 250.348 290.874C253.141 290.874 256.018 290.895 258.981 290.937C261.943 290.98 264.694 291.001 267.233 291.001L267.246 314.805Z" fill="white"/>
<line x1="95.6389" y1="457.636" x2="375.639" y2="457.636" stroke="white" stroke-width="24" stroke-linecap="square"/>
</g>
<rect x="-6.50377" y="-6.5" width="413.417" height="501.636" transform="matrix(1 0 0.000580178 1 37.0038 18)" stroke="#E14747" stroke-width="13"/>
</g>
<defs>
<clipPath id="clip0_6_24">
<rect width="518" height="518" fill="white"/>
</clipPath>
<clipPath id="clip1_6_24">
<rect width="400.417" height="488.636" transform="matrix(1 0 0.000580178 1 37 18)" fill="white"/>
</clipPath>
</defs>
</svg>
